<?xml version="1.0" encoding="UTF-8"?>
<!DOCTYPE svg PUBLIC "-//W3C//DTD SVG 1.1//EN" "http://www.w3.org/Graphics/SVG/1.1/DTD/svg11.dtd">
<!-- Creator: CorelDRAW 2018 (64-Bit Оценочная версия) -->
<svg xmlns="http://www.w3.org/2000/svg" xml:space="preserve" width="108.797mm" height="108.797mm" version="1.1" style="shape-rendering:geometricPrecision; text-rendering:geometricPrecision; image-rendering:optimizeQuality; fill-rule:evenodd; clip-rule:evenodd"
viewBox="0 0 987.99 987.99"
 >
 <defs>
  <style type="text/css">
   <![CDATA[
    .fil0 {fill:#00A0E3}
    .fil1 {fill:#FEFEFE;fill-rule:nonzero}
   ]]>
  </style>
 </defs>
 <g id="Слой_x0020_1">
  <rect class="fil0" x="-0" y="-0" width="987.99" height="987.99"/>
  <path class="fil1" d="M61.63 243.1c-17.55,0 -31.78,-14.23 -31.78,-31.78 0,-17.55 14.23,-31.78 31.78,-31.78l124.94 0c16.14,0 28.08,12.29 31.51,27.63l9.1 40.64c2.86,-0.59 5.78,-0.91 8.69,-0.91l587.41 0c22.73,0 41.68,18.61 41.33,41.33l-3.63 238.28c-0.35,22.72 -18.74,38.91 -41.33,41.33l-508.56 54.61 6.59 29.41c1.68,7.61 0.47,15.19 -2.9,21.58l-7.84 14.97 452.92 0c17.55,0 31.78,14.23 31.78,31.78 0,17.55 -14.23,31.79 -31.78,31.78l-10.53 -0c27.88,6.88 48.56,32.05 48.56,62.05 0,35.3 -28.61,63.91 -63.91,63.91 -35.3,0 -63.91,-28.61 -63.91,-63.91 0,-30.01 20.69,-55.19 48.58,-62.06l-417.63 -0.06c28.01,6.79 48.81,32.02 48.81,62.11 0,35.3 -28.61,63.91 -63.91,63.91 -35.3,0 -63.91,-28.61 -63.91,-63.91 0,-30.1 20.81,-55.34 48.83,-62.12l-16.51 -0c-23.35,0.02 -39.32,-25.11 -28.06,-46.49l27.04 -51.27 -92.06 -411.07 -99.61 0zm549.53 136.19l-66.3 66.3 0 -133.84c0,-20.06 -16.26,-36.32 -36.32,-36.32 -20.06,0 -36.32,16.26 -36.32,36.32l0 133.84 -66.3 -66.3c-14.18,-14.18 -37.18,-14.18 -51.36,0 -14.18,14.18 -14.18,37.18 0,51.36l128.07 128.07c13.01,13.13 33.42,14.59 48.14,3.29l131.76 -131.35c14.18,-14.18 14.18,-37.18 0,-51.36 -14.18,-14.18 -37.18,-14.18 -51.36,0z"/>
 </g>
</svg>
