<?xml version="1.0" encoding="UTF-8"?>
<!DOCTYPE svg PUBLIC "-//W3C//DTD SVG 1.1//EN" "http://www.w3.org/Graphics/SVG/1.1/DTD/svg11.dtd">
<!-- Creator: CorelDRAW 2018 (64-Bit Оценочная версия) -->
<svg xmlns="http://www.w3.org/2000/svg" xml:space="preserve" width="1285px" height="1285px" version="1.1" style="shape-rendering:geometricPrecision; text-rendering:geometricPrecision; image-rendering:optimizeQuality; fill-rule:evenodd; clip-rule:evenodd"
viewBox="0 0 1285 1285"
 >
 <defs>
  <style type="text/css">
   <![CDATA[
    .fil0 {fill:#00A0E3}
    .fil2 {fill:#FEFEFE;fill-rule:nonzero}
    .fil1 {fill:#FEFEFE;fill-rule:nonzero}
   ]]>
  </style>
 </defs>
 <g id="Слой_x0020_1">
  <metadata id="CorelCorpID_0Corel-Layer"/>
  <rect class="fil0" width="1285" height="1285"/>
  <path class="fil1" d="M80.16 181.18c-22.83,0 -41.34,-18.5 -41.34,-41.33 0,-22.83 18.51,-41.33 41.34,-41.33l162.5 0c20.99,0 36.52,15.98 40.98,35.93l11.84 52.86c3.71,-0.77 7.51,-1.18 11.3,-1.18l763.99 0c29.57,0 54.21,24.2 53.76,53.75l-4.72 309.91c-0.46,29.55 -24.38,50.61 -53.76,53.76l-661.44 71.02 8.57 38.25c2.19,9.9 0.61,19.76 -3.77,28.07l-10.2 19.47 589.08 0c22.83,0 41.33,18.51 41.33,41.34 0,22.82 -18.5,41.34 -41.33,41.33l-13.7 0c36.27,8.95 63.16,41.68 63.16,80.7 0,45.91 -37.21,83.12 -83.12,83.12 -45.91,0 -83.12,-37.21 -83.12,-83.12 0,-39.03 26.91,-71.78 63.18,-80.71l-543.18 -0.08c36.43,8.83 63.49,41.64 63.49,80.78 0,45.91 -37.21,83.12 -83.13,83.12 -45.91,0 -83.12,-37.21 -83.12,-83.12 0,-39.15 27.07,-71.98 63.51,-80.79l-21.47 0c-30.37,0.02 -51.14,-32.66 -36.5,-60.47l35.17 -66.68 -119.73 -534.65 -129.56 0 -0.01 0.05zm714.73 177.13l-86.23 86.23 0 -174.07c0,-26.09 -21.15,-47.24 -47.24,-47.24 -26.09,0 -47.24,21.15 -47.24,47.24l0 174.07 -86.23 -86.23c-18.44,-18.44 -48.36,-18.44 -66.8,0 -18.44,18.45 -18.44,48.36 0,66.8l166.57 166.57c16.92,17.08 43.47,18.98 62.61,4.28l171.37 -170.83c18.45,-18.45 18.45,-48.36 0,-66.8 -18.44,-18.45 -48.35,-18.45 -66.8,0l-0.01 -0.02z"/>
  <path class="fil2" d="M413.61 1206.45c0,0.66 -0.19,1.23 -0.57,1.71 -0.35,0.47 -1.01,0.85 -1.99,1.16 -0.95,0.29 -2.24,0.54 -3.85,0.7 -1.61,0.16 -3.66,0.22 -6.19,0.22 -2.69,0 -4.83,-0.06 -6.44,-0.22 -1.65,-0.16 -2.97,-0.41 -3.95,-0.76 -1.01,-0.35 -1.74,-0.79 -2.24,-1.39 -0.48,-0.57 -0.86,-1.29 -1.11,-2.18l-9.63 -26.68c-1.36,-3.92 -2.78,-7.17 -4.26,-9.79 -1.49,-2.62 -3.13,-4.77 -4.93,-6.41 -1.77,-1.61 -3.82,-2.78 -6.09,-3.47 -2.31,-0.67 -4.87,-1.02 -7.71,-1.02l-5.46 0 0 48.04c0,0.66 -0.19,1.23 -0.57,1.7 -0.35,0.47 -1.01,0.85 -1.92,1.2 -0.92,0.35 -2.15,0.6 -3.7,0.76 -1.52,0.16 -3.5,0.22 -5.87,0.22 -2.34,0 -4.3,-0.06 -5.88,-0.22 -1.58,-0.16 -2.81,-0.41 -3.72,-0.76 -0.92,-0.35 -1.58,-0.73 -1.99,-1.2 -0.41,-0.47 -0.6,-1.04 -0.6,-1.7l0 -113.21c0,-0.66 0.19,-1.23 0.6,-1.71 0.41,-0.47 1.07,-0.85 1.99,-1.17 0.91,-0.28 2.14,-0.53 3.72,-0.69 1.58,-0.16 3.54,-0.22 5.88,-0.22 2.37,0 4.35,0.06 5.87,0.22 1.55,0.16 2.78,0.38 3.7,0.69 0.91,0.32 1.57,0.7 1.92,1.17 0.38,0.45 0.57,1.01 0.57,1.71l0 44.9 5.46 0c2.78,0 5.24,-0.38 7.33,-1.1 2.11,-0.76 4.01,-1.93 5.71,-3.51 1.71,-1.61 3.26,-3.69 4.65,-6.25 1.39,-2.56 2.71,-5.72 4.04,-9.47l8.05 -23.85c0.32,-0.85 0.66,-1.57 1.11,-2.14 0.44,-0.6 1.13,-1.08 2.08,-1.39 0.95,-0.35 2.21,-0.6 3.79,-0.76 1.55,-0.16 3.66,-0.22 6.31,-0.22 2.4,0 4.39,0.06 5.94,0.22 1.58,0.16 2.81,0.38 3.7,0.66 0.91,0.29 1.51,0.63 1.8,1.11 0.31,0.47 0.47,1.04 0.47,1.7 0,0.79 -0.13,1.8 -0.41,2.97 -0.29,1.17 -0.76,2.72 -1.45,4.61l-8.02 21.25c-1.49,3.95 -2.97,7.33 -4.46,10.08 -1.48,2.78 -3.03,5.15 -4.67,7.07 -1.61,1.96 -3.35,3.54 -5.18,4.77 -1.8,1.23 -3.82,2.24 -6.03,3.06l0 0.07c2.46,1.07 4.7,2.24 6.69,3.56 2.02,1.36 3.92,3.03 5.69,5.06 1.73,2.05 3.44,4.54 5.05,7.51 1.58,2.97 3.22,6.6 4.9,10.93l9.82 24.85c1.01,2.53 1.57,4.26 1.76,5.24 0.19,0.95 0.29,1.74 0.29,2.37zm74.87 -29.84c-2.72,6.88 -5.37,12.6 -7.99,17.08 -2.62,4.52 -5.43,8.09 -8.4,10.71 -3,2.62 -6.25,4.42 -9.79,5.46 -3.54,1.01 -7.58,1.52 -12.13,1.52 -1.67,0 -3.28,-0.1 -4.89,-0.32 -1.61,-0.22 -3.09,-0.5 -4.52,-0.88 -1.42,-0.38 -2.65,-0.82 -3.69,-1.3 -1.04,-0.5 -1.8,-0.98 -2.31,-1.39 -0.5,-0.44 -0.88,-0.91 -1.16,-1.45 -0.26,-0.51 -0.51,-1.2 -0.67,-2.08 -0.19,-0.86 -0.34,-1.96 -0.44,-3.29 -0.09,-1.33 -0.13,-3 -0.13,-4.96 0,-3.6 0.26,-6.12 0.79,-7.64 0.51,-1.51 1.33,-2.27 2.44,-2.27 0.56,0 1.16,0.22 1.83,0.66 0.69,0.41 1.51,0.89 2.46,1.36 0.95,0.5 2.05,0.95 3.32,1.36 1.26,0.41 2.74,0.6 4.45,0.6 1.29,0 2.49,-0.13 3.6,-0.41 1.1,-0.29 2.15,-0.82 3.12,-1.61 0.98,-0.79 1.96,-1.93 2.94,-3.38 0.98,-1.42 2.05,-3.32 3.16,-5.66l-39.38 -80.2c-0.85,-1.93 -1.36,-3.48 -1.51,-4.68 -0.16,-1.2 0.12,-2.14 0.85,-2.81 0.76,-0.69 2.02,-1.13 3.76,-1.36 1.76,-0.22 4.13,-0.31 7.1,-0.31 2.91,0 5.21,0.06 6.95,0.19 1.74,0.12 3.12,0.38 4.17,0.79 1.04,0.38 1.86,0.98 2.4,1.73 0.57,0.79 1.1,1.8 1.67,3.04l16.77 36.25c1.86,3.88 3.6,7.77 5.24,11.62 1.67,3.85 3.28,7.73 4.8,11.68l0.28 0c1.24,-4.14 2.56,-8.15 3.95,-12.06 1.39,-3.92 2.91,-8.02 4.58,-12.35l13.83 -36.82c0.32,-0.85 0.7,-1.54 1.2,-2.08 0.51,-0.54 1.23,-0.95 2.21,-1.26 0.98,-0.29 2.34,-0.51 4.07,-0.6 1.71,-0.1 3.95,-0.13 6.73,-0.13 2.81,0 5.09,0.09 6.73,0.28 1.67,0.19 2.87,0.54 3.6,1.05 0.75,0.53 1.07,1.26 1.01,2.17 -0.07,0.95 -0.35,2.15 -0.92,3.64l-32.08 80.11zm140.05 29.93c0,0.6 -0.19,1.14 -0.57,1.62 -0.35,0.47 -1.01,0.85 -1.93,1.16 -0.91,0.29 -2.15,0.54 -3.72,0.7 -1.58,0.16 -3.54,0.22 -5.85,0.22 -2.33,0 -4.29,-0.06 -5.87,-0.22 -1.58,-0.16 -2.81,-0.41 -3.73,-0.7 -0.91,-0.31 -1.57,-0.69 -1.99,-1.16 -0.4,-0.48 -0.6,-1.02 -0.6,-1.62l0 -96.34 -44.71 0 0 96.34c0,0.6 -0.19,1.14 -0.6,1.62 -0.41,0.47 -1.07,0.85 -1.99,1.16 -0.91,0.29 -2.15,0.54 -3.69,0.7 -1.52,0.16 -3.51,0.22 -5.88,0.22 -2.33,0 -4.29,-0.06 -5.87,-0.22 -1.58,-0.16 -2.81,-0.41 -3.73,-0.7 -0.91,-0.31 -1.58,-0.69 -1.92,-1.16 -0.38,-0.48 -0.57,-1.02 -0.57,-1.62l0 -108.94c0,-2.59 0.66,-4.51 1.96,-5.78 1.29,-1.26 3,-1.89 5.14,-1.89l79.07 0c2.25,0 3.95,0.63 5.18,1.89 1.24,1.27 1.87,3.19 1.87,5.78l0 108.94zm123.5 0c0,0.6 -0.19,1.14 -0.6,1.62 -0.41,0.47 -1.08,0.85 -1.99,1.16 -0.92,0.29 -2.18,0.54 -3.76,0.7 -1.58,0.16 -3.54,0.22 -5.87,0.22 -2.34,0 -4.3,-0.06 -5.88,-0.22 -1.58,-0.16 -2.81,-0.41 -3.69,-0.7 -0.92,-0.31 -1.55,-0.69 -1.9,-1.16 -0.37,-0.48 -0.56,-1.02 -0.56,-1.62l0 -63.12c0,-2.4 0.03,-4.77 0.09,-7.07 0.06,-2.34 0.16,-4.39 0.28,-6.16l-0.18 0c-0.51,0.85 -1.08,1.86 -1.77,3 -0.7,1.14 -1.42,2.34 -2.18,3.6 -0.79,1.26 -1.61,2.56 -2.47,3.88 -0.88,1.33 -1.73,2.62 -2.58,3.86l-41.59 62.11c-0.51,0.66 -1.01,1.26 -1.52,1.74 -0.53,0.5 -1.2,0.88 -2.05,1.16 -0.82,0.29 -1.83,0.48 -3.03,0.57 -1.2,0.1 -2.78,0.13 -4.68,0.13 -2.4,0 -4.35,-0.06 -5.81,-0.22 -1.48,-0.16 -2.65,-0.41 -3.47,-0.7 -0.85,-0.31 -1.42,-0.72 -1.7,-1.2 -0.32,-0.5 -0.48,-1.1 -0.48,-1.76l0 -113.31c0,-0.6 0.19,-1.13 0.6,-1.61 0.41,-0.47 1.08,-0.85 2.02,-1.17 0.95,-0.28 2.21,-0.53 3.76,-0.69 1.52,-0.16 3.47,-0.22 5.81,-0.22 2.37,0 4.36,0.06 5.87,0.22 1.55,0.16 2.78,0.41 3.7,0.69 0.91,0.32 1.58,0.7 1.93,1.17 0.37,0.48 0.56,1.01 0.56,1.61l0 63.51c0,1.95 -0.03,4.07 -0.09,6.28 -0.07,2.24 -0.16,4.39 -0.29,6.47l0.19 0c1.08,-1.83 2.4,-4.07 4.01,-6.66 1.62,-2.59 3.29,-5.11 4.99,-7.58l41.65 -62.11c0.45,-0.6 0.89,-1.14 1.39,-1.61 0.51,-0.48 1.17,-0.85 1.99,-1.17 0.82,-0.28 1.87,-0.51 3.1,-0.63 1.23,-0.13 2.81,-0.19 4.73,-0.19 2.34,0 4.24,0.06 5.69,0.22 1.45,0.16 2.59,0.41 3.47,0.69 0.86,0.32 1.46,0.7 1.8,1.17 0.35,0.48 0.51,1.05 0.51,1.71l0 113.39zm105.69 -106.63c0,1.8 -0.07,3.31 -0.22,4.61 -0.16,1.26 -0.38,2.27 -0.7,3.03 -0.31,0.79 -0.69,1.36 -1.17,1.7 -0.44,0.38 -0.98,0.57 -1.51,0.57l-29.94 0 0 96.54c0,0.6 -0.19,1.16 -0.6,1.67 -0.41,0.47 -1.07,0.88 -1.99,1.2 -0.91,0.28 -2.18,0.54 -3.75,0.73 -1.58,0.18 -3.54,0.28 -5.88,0.28 -2.34,0 -4.29,-0.1 -5.87,-0.28 -1.58,-0.19 -2.84,-0.45 -3.76,-0.73 -0.92,-0.32 -1.58,-0.73 -1.99,-1.2 -0.41,-0.51 -0.6,-1.07 -0.6,-1.67l0 -96.54 -29.94 0c-0.6,0 -1.13,-0.19 -1.57,-0.57 -0.41,-0.34 -0.79,-0.91 -1.11,-1.7 -0.28,-0.76 -0.54,-1.77 -0.69,-3.03 -0.16,-1.3 -0.23,-2.81 -0.23,-4.61 0,-1.84 0.07,-3.41 0.23,-4.71 0.15,-1.29 0.41,-2.34 0.69,-3.09 0.32,-0.79 0.7,-1.33 1.11,-1.68 0.44,-0.34 0.97,-0.5 1.57,-0.5l84.32 0c0.53,0 1.04,0.16 1.51,0.5 0.48,0.35 0.86,0.89 1.17,1.68 0.32,0.75 0.54,1.8 0.7,3.09 0.15,1.3 0.22,2.87 0.22,4.71zm102.34 70.07c0,5.68 -0.85,10.89 -2.56,15.63 -1.67,4.77 -4.42,8.9 -8.21,12.44 -3.82,3.57 -8.74,6.38 -14.87,8.46 -6.09,2.12 -14.46,3.16 -25.07,3.16l-29.91 0c-1.04,0 -2.02,-0.13 -2.9,-0.41 -0.89,-0.28 -1.68,-0.76 -2.37,-1.39 -0.66,-0.66 -1.2,-1.45 -1.61,-2.4 -0.41,-0.98 -0.6,-2.11 -0.6,-3.47l0 -108.95c0,-0.6 0.19,-1.13 0.6,-1.61 0.41,-0.47 1.07,-0.85 2.02,-1.17 0.95,-0.28 2.21,-0.53 3.79,-0.69 1.58,-0.16 3.47,-0.22 5.78,-0.22 2.37,0 4.36,0.06 5.87,0.22 1.55,0.16 2.78,0.41 3.7,0.69 0.91,0.32 1.58,0.7 1.92,1.17 0.38,0.48 0.57,1.01 0.57,1.61l0 40.83 16.77 0c9.09,0 16.33,0.79 21.69,2.37 5.37,1.58 9.92,3.89 13.68,6.98 3.72,3.1 6.63,6.88 8.65,11.37 2.05,4.51 3.06,9.63 3.06,15.38zm-25.01 2.02c0,-3 -0.44,-5.69 -1.29,-8.02 -0.89,-2.34 -2.21,-4.33 -3.98,-6 -1.8,-1.64 -4.11,-2.91 -6.92,-3.82 -2.81,-0.89 -7.01,-1.33 -12.56,-1.33l-14.09 0 0 37.89 14.56 0c5.81,0 10.14,-0.56 13.01,-1.7 2.87,-1.14 5.12,-2.62 6.73,-4.42 1.61,-1.83 2.77,-3.82 3.47,-6.03 0.73,-2.21 1.07,-4.42 1.07,-6.57z"/>
 </g>
</svg>
