<?xml version="1.0" encoding="UTF-8"?>
<!DOCTYPE svg PUBLIC "-//W3C//DTD SVG 1.1//EN" "http://www.w3.org/Graphics/SVG/1.1/DTD/svg11.dtd">
<!-- Creator: CorelDRAW 2018 (64-Bit Оценочная версия) -->
<svg xmlns="http://www.w3.org/2000/svg" xml:space="preserve" width="1285px" height="1285px" version="1.1"
     style="shape-rendering:geometricPrecision; text-rendering:geometricPrecision; image-rendering:optimizeQuality; fill-rule:evenodd; clip-rule:evenodd"
     viewBox="0 0 1285 1285"
>
 <defs>
  <style type="text/css">
   <![CDATA[
    .fil0 {fill:#009846}
    .fil2 {fill:#FEFEFE;fill-rule:nonzero}
    .fil1 {fill:#FEFEFE;fill-rule:nonzero}
   ]]>
  </style>
 </defs>
 <g id="Слой_x0020_1">
  <metadata id="CorelCorpID_0Corel-Layer"/>
  <rect class="fil0" width="1285" height="1285"/>
     <path class="fil1"
           d="M80.16 181.18c-22.83,0 -41.33,-18.51 -41.33,-41.33 0,-22.83 18.51,-41.33 41.33,-41.33l162.51 0c20.99,0 36.52,15.97 40.98,35.93l11.85 52.86c3.72,-0.77 7.51,-1.18 11.29,-1.18l764 0c29.56,0 54.21,24.21 53.76,53.76l-4.72 309.91c-0.45,29.56 -24.37,50.6 -53.76,53.77l-661.45 71.02 8.57 38.25c2.18,9.9 0.6,19.76 -3.78,28.07l-10.19 19.47 589.08 0c22.83,0 41.33,18.52 41.33,41.34 0,22.83 -18.51,41.34 -41.33,41.33l-13.69 0c36.26,8.94 63.16,41.68 63.16,80.71 0,45.91 -37.22,83.12 -83.12,83.12 -45.91,0 -83.12,-37.22 -83.12,-83.12 0,-39.04 26.9,-71.78 63.18,-80.71l-543.17 -0.07c36.43,8.82 63.49,41.64 63.49,80.78 0,45.91 -37.22,83.12 -83.12,83.12 -45.91,0 -83.12,-37.22 -83.12,-83.12 0,-39.15 27.07,-71.98 63.51,-80.79l-21.47 0c-30.38,0.03 -51.15,-32.67 -36.49,-60.46l35.17 -66.68 -119.74 -534.65 -129.56 0 -0.05 0 0 0zm714.73 289.58c18.45,18.45 48.35,18.45 66.81,0 18.45,-18.45 18.45,-48.36 0,-66.81l-171.37 -170.83c-19.15,-14.7 -45.71,-12.8 -62.62,4.28l-166.57 166.56c-18.45,18.45 -18.45,48.36 0,66.81 18.45,18.45 48.35,18.45 66.8,0l86.23 -86.23 0 174.08c0,26.09 21.15,47.24 47.25,47.24 26.09,0 47.24,-21.15 47.24,-47.24l0 -174.08 86.23 86.23 0 -0.01 0 0z"/>
     <path class="fil2"
           d="M471.47 1192.94c0,1.55 -0.03,2.89 -0.12,3.97 -0.1,1.08 -0.25,2.03 -0.45,2.79 -0.15,0.79 -0.41,1.46 -0.72,2.03 -0.32,0.54 -0.8,1.18 -1.5,1.87 -0.66,0.7 -2,1.62 -3.93,2.74 -1.97,1.07 -4.35,2.15 -7.18,3.17 -2.82,0.98 -6.03,1.84 -9.65,2.51 -3.61,0.66 -7.55,1.01 -11.77,1.01 -8.23,0 -15.65,-1.27 -22.29,-3.81 -6.63,-2.54 -12.28,-6.34 -16.91,-11.39 -4.67,-5.05 -8.22,-11.33 -10.7,-18.92 -2.47,-7.55 -3.72,-16.35 -3.72,-26.38 0,-10.22 1.37,-19.3 4.1,-27.23 2.73,-7.94 6.54,-14.61 11.43,-20 4.88,-5.4 10.76,-9.46 17.61,-12.25 6.83,-2.8 14.38,-4.19 22.64,-4.19 3.33,0 6.53,0.28 9.64,0.85 3.12,0.54 5.97,1.28 8.61,2.19 2.63,0.89 4.98,1.94 7.11,3.12 2.09,1.2 3.59,2.22 4.41,3.04 0.82,0.86 1.4,1.56 1.71,2.1 0.32,0.57 0.57,1.27 0.73,2.12 0.2,0.89 0.35,1.91 0.45,3.08 0.09,1.18 0.13,2.61 0.13,4.35 0,1.84 -0.07,3.43 -0.2,4.73 -0.12,1.3 -0.34,2.35 -0.63,3.14 -0.32,0.8 -0.7,1.4 -1.11,1.75 -0.44,0.38 -0.95,0.57 -1.49,0.57 -0.92,0 -2.1,-0.54 -3.52,-1.62 -1.43,-1.08 -3.28,-2.28 -5.53,-3.62 -2.25,-1.33 -4.95,-2.54 -8.09,-3.61 -3.12,-1.08 -6.83,-1.62 -11.18,-1.62 -4.76,0 -9.01,0.98 -12.76,2.92 -3.74,1.96 -6.92,4.73 -9.55,8.34 -2.64,3.65 -4.64,8.03 -6,13.18 -1.36,5.11 -2.03,10.92 -2.03,17.36 0,7.05 0.73,13.17 2.19,18.35 1.46,5.14 3.52,9.42 6.22,12.76 2.67,3.33 5.94,5.84 9.75,7.46 3.8,1.65 8.09,2.47 12.85,2.47 4.32,0 8.06,-0.51 11.24,-1.52 3.14,-1.02 5.84,-2.16 8.09,-3.36 2.29,-1.25 4.13,-2.35 5.59,-3.34 1.45,-0.98 2.57,-1.49 3.39,-1.49 0.6,0 1.11,0.12 1.46,0.38 0.39,0.25 0.7,0.73 0.96,1.49 0.22,0.73 0.41,1.78 0.53,3.11 0.13,1.37 0.19,3.14 0.19,5.4zm128.62 46.47c0,0.6 -0.15,1.14 -0.47,1.55 -0.29,0.45 -0.86,0.8 -1.65,1.08 -0.83,0.29 -1.91,0.51 -3.24,0.67 -1.37,0.16 -3.14,0.22 -5.3,0.22 -2.1,0 -3.81,-0.06 -5.15,-0.22 -1.33,-0.16 -2.41,-0.38 -3.23,-0.67 -0.86,-0.28 -1.43,-0.63 -1.78,-1.05 -0.35,-0.44 -0.51,-0.98 -0.51,-1.58l0 -28.28 -80.18 0 0 28.28c0,0.6 -0.16,1.14 -0.5,1.58 -0.35,0.42 -0.92,0.77 -1.78,1.05 -0.83,0.29 -1.94,0.51 -3.3,0.67 -1.37,0.16 -3.12,0.22 -5.21,0.22 -2.12,0 -3.87,-0.06 -5.24,-0.22 -1.36,-0.16 -2.47,-0.38 -3.3,-0.67 -0.82,-0.28 -1.43,-0.63 -1.71,-1.08 -0.32,-0.41 -0.48,-0.95 -0.48,-1.55l0 -43.27c-0.13,-1.77 0.19,-3.08 0.99,-3.84 0.76,-0.79 1.93,-1.17 3.49,-1.17l5.59 0c1.49,-2.1 2.88,-4.28 4.21,-6.51 1.34,-2.22 2.64,-4.89 3.88,-7.93 1.24,-3.08 2.44,-6.73 3.68,-10.99 1.21,-4.22 2.38,-9.42 3.56,-15.55 1.2,-6.12 2.37,-13.4 3.58,-21.81 1.21,-8.37 2.48,-18.25 3.78,-29.58 0.38,-2.79 1.08,-4.82 2.13,-6.09 1.08,-1.27 2.7,-1.91 4.85,-1.91l61.52 0c2.16,0 3.87,0.64 5.11,1.91 1.24,1.27 1.87,3.2 1.87,5.81l0 92.65 10.22 0c1.68,0 2.86,0.44 3.56,1.33 0.66,0.93 1.01,2.16 1.01,3.78l0 43.17zm-39.17 -128.84l-28.06 0c-1.11,9.4 -2.22,17.68 -3.33,24.82 -1.08,7.14 -2.19,13.43 -3.27,18.79 -1.11,5.4 -2.19,10.03 -3.33,13.94 -1.11,3.9 -2.25,7.27 -3.43,10.12 -1.14,2.83 -2.35,5.27 -3.59,7.33 -1.26,2.03 -2.54,3.88 -3.83,5.56l48.84 0 0 -80.56zm154.84 91.45c0.73,2.22 1.21,4 1.4,5.3 0.19,1.3 -0.07,2.28 -0.73,2.95 -0.7,0.64 -1.91,1.05 -3.65,1.21 -1.72,0.15 -4.13,0.22 -7.15,0.22 -3.17,0 -5.65,-0.03 -7.39,-0.13 -1.78,-0.09 -3.11,-0.28 -4.06,-0.57 -0.92,-0.29 -1.56,-0.66 -1.94,-1.17 -0.38,-0.48 -0.7,-1.15 -0.92,-1.94l-7.9 -24.19 -45.4 0 -7.58 23.52c-0.26,0.89 -0.57,1.62 -0.98,2.19 -0.39,0.61 -1.05,1.05 -1.94,1.4 -0.89,0.35 -2.16,0.57 -3.81,0.7 -1.65,0.12 -3.81,0.19 -6.48,0.19 -2.85,0 -5.08,-0.1 -6.69,-0.29 -1.62,-0.19 -2.73,-0.63 -3.34,-1.33 -0.63,-0.73 -0.85,-1.74 -0.66,-3.05 0.19,-1.3 0.66,-3.01 1.4,-5.2l37.07 -106.81c0.35,-1.05 0.79,-1.91 1.3,-2.54 0.48,-0.67 1.27,-1.15 2.35,-1.49 1.11,-0.35 2.6,-0.58 4.54,-0.67 1.9,-0.1 4.44,-0.13 7.62,-0.13 3.65,0 6.57,0.03 8.72,0.13 2.19,0.09 3.88,0.32 5.08,0.67 1.21,0.34 2.07,0.85 2.61,1.52 0.5,0.7 0.98,1.62 1.33,2.79l37.2 106.72zm-55.23 -88.37l-0.09 0 -16.77 51.2 33.78 0 -16.92 -51.2zm139.06 -12.86c0,1.81 -0.06,3.34 -0.22,4.64 -0.16,1.27 -0.38,2.28 -0.7,3.05 -0.32,0.79 -0.7,1.36 -1.18,1.71 -0.44,0.38 -0.98,0.57 -1.52,0.57l-30.09 0 0 97.04c0,0.6 -0.19,1.17 -0.6,1.68 -0.42,0.47 -1.08,0.89 -2,1.2 -0.92,0.29 -2.19,0.54 -3.78,0.73 -1.59,0.19 -3.56,0.29 -5.9,0.29 -2.35,0 -4.32,-0.1 -5.91,-0.29 -1.58,-0.19 -2.85,-0.44 -3.78,-0.73 -0.92,-0.31 -1.58,-0.73 -2,-1.2 -0.41,-0.51 -0.6,-1.08 -0.6,-1.68l0 -97.04 -30.09 0c-0.6,0 -1.14,-0.19 -1.59,-0.57 -0.41,-0.35 -0.79,-0.92 -1.11,-1.71 -0.28,-0.77 -0.54,-1.78 -0.69,-3.05 -0.16,-1.3 -0.23,-2.83 -0.23,-4.64 0,-1.84 0.07,-3.43 0.23,-4.73 0.15,-1.3 0.41,-2.35 0.69,-3.11 0.32,-0.79 0.7,-1.33 1.11,-1.68 0.45,-0.35 0.99,-0.51 1.59,-0.51l84.75 0c0.54,0 1.05,0.16 1.52,0.51 0.48,0.35 0.86,0.89 1.18,1.68 0.32,0.76 0.54,1.81 0.7,3.11 0.16,1.3 0.22,2.89 0.22,4.73zm102.88 70.44c0,5.71 -0.86,10.95 -2.58,15.71 -1.68,4.79 -4.44,8.95 -8.25,12.51 -3.84,3.58 -8.79,6.41 -14.95,8.5 -6.12,2.13 -14.54,3.18 -25.2,3.18l-30.06 0c-1.05,0 -2.03,-0.13 -2.92,-0.42 -0.89,-0.28 -1.69,-0.76 -2.38,-1.39 -0.67,-0.67 -1.21,-1.46 -1.62,-2.41 -0.41,-0.99 -0.61,-2.13 -0.61,-3.49l0 -109.52c0,-0.6 0.2,-1.14 0.61,-1.62 0.41,-0.47 1.08,-0.85 2.03,-1.17 0.95,-0.29 2.22,-0.54 3.81,-0.7 1.59,-0.16 3.49,-0.22 5.81,-0.22 2.38,0 4.38,0.06 5.9,0.22 1.56,0.16 2.79,0.41 3.71,0.7 0.93,0.32 1.59,0.7 1.94,1.17 0.38,0.48 0.57,1.02 0.57,1.62l0 41.05 16.86 0c9.14,0 16.41,0.79 21.81,2.38 5.39,1.59 9.96,3.9 13.74,7.01 3.75,3.11 6.66,6.92 8.7,11.43 2.06,4.54 3.08,9.68 3.08,15.46zm-25.15 2.03c0,-3.02 -0.44,-5.71 -1.29,-8.07 -0.89,-2.34 -2.23,-4.34 -4,-6.03 -1.82,-1.64 -4.13,-2.92 -6.96,-3.83 -2.82,-0.89 -7.04,-1.34 -12.63,-1.34l-14.16 0 0 38.09 14.64 0c5.84,0 10.19,-0.57 13.07,-1.71 2.89,-1.15 5.15,-2.64 6.76,-4.44 1.62,-1.85 2.8,-3.85 3.49,-6.07 0.74,-2.22 1.08,-4.44 1.08,-6.6z"/>
 </g>
</svg>
