<?xml version="1.0" encoding="UTF-8"?>
<!DOCTYPE svg PUBLIC "-//W3C//DTD SVG 1.1//EN" "http://www.w3.org/Graphics/SVG/1.1/DTD/svg11.dtd">
<!-- Creator: CorelDRAW 2018 (64-Bit Оценочная версия) -->
<svg xmlns="http://www.w3.org/2000/svg" xml:space="preserve" width="108.797mm" height="108.797mm" version="1.1" style="shape-rendering:geometricPrecision; text-rendering:geometricPrecision; image-rendering:optimizeQuality; fill-rule:evenodd; clip-rule:evenodd"
viewBox="0 0 1252.23 1252.23"
 >
 <defs>
  <style type="text/css">
   <![CDATA[
    .fil0 {fill:#009846}
    .fil1 {fill:#FEFEFE;fill-rule:nonzero}
   ]]>
  </style>
 </defs>
 <g id="Слой_x0020_1">
  <rect class="fil0" x="-0" y="-0" width="1252.23" height="1252.23"/>
  <path class="fil1" d="M78.12 308.12c-22.25,0 -40.28,-18.04 -40.28,-40.28 0,-22.25 18.04,-40.28 40.28,-40.28l158.36 0c20.46,0 35.59,15.57 39.94,35.02l11.54 51.51c3.63,-0.75 7.32,-1.15 11.01,-1.15l744.51 0c28.81,0 52.83,23.59 52.39,52.39l-4.6 302.01c-0.44,28.8 -23.75,49.31 -52.39,52.39l-644.58 69.21 8.35 37.28c2.13,9.65 0.59,19.25 -3.68,27.35l-9.93 18.98 574.05 0c22.25,0 40.28,18.04 40.28,40.28 0,22.25 -18.04,40.29 -40.28,40.28l-13.34 -0c35.34,8.71 61.55,40.62 61.55,78.65 0,44.74 -36.27,81 -81,81 -44.74,0 -81,-36.27 -81,-81 0,-38.04 26.22,-69.95 61.57,-78.65l-529.32 -0.07c35.5,8.6 61.87,40.58 61.87,78.72 0,44.74 -36.27,81 -81,81 -44.74,0 -81,-36.27 -81,-81 0,-38.15 26.38,-70.14 61.89,-78.73l-20.92 -0c-29.6,0.03 -49.84,-31.83 -35.56,-58.92l34.27 -64.98 -116.68 -521.01 -126.26 0zm696.5 282.19c17.98,17.98 47.12,17.98 65.1,0 17.98,-17.98 17.98,-47.12 0,-65.1l-167 -166.48c-18.66,-14.32 -44.54,-12.47 -61.02,4.17l-162.32 162.32c-17.98,17.98 -17.98,47.12 0,65.1 17.98,17.98 47.12,17.98 65.1,0l84.03 -84.03 0 169.64c0,25.43 20.61,46.04 46.04,46.04 25.43,0 46.04,-20.61 46.04,-46.04l0 -169.64 84.03 84.03z"/>
 </g>
</svg>
