<?xml version="1.0" encoding="UTF-8"?>
<!DOCTYPE svg PUBLIC "-//W3C//DTD SVG 1.1//EN" "http://www.w3.org/Graphics/SVG/1.1/DTD/svg11.dtd">
<!-- Creator: CorelDRAW 2018 (64-Bit Оценочная версия) -->
<svg xmlns="http://www.w3.org/2000/svg" xml:space="preserve" width="1285px" height="1285px" version="1.1" style="shape-rendering:geometricPrecision; text-rendering:geometricPrecision; image-rendering:optimizeQuality; fill-rule:evenodd; clip-rule:evenodd"
viewBox="0 0 1285 1285"
 >
 <defs>
  <style type="text/css">
   <![CDATA[
    .fil0 {fill:#009846}
    .fil2 {fill:#FEFEFE;fill-rule:nonzero}
    .fil1 {fill:#FEFEFE;fill-rule:nonzero}
   ]]>
  </style>
 </defs>
 <g id="Слой_x0020_1">
  <metadata id="CorelCorpID_0Corel-Layer"/>
  <rect class="fil0" width="1285" height="1285"/>
  <path class="fil1" d="M80.16 181.18c-22.83,0 -41.33,-18.51 -41.33,-41.33 0,-22.83 18.51,-41.33 41.33,-41.33l162.51 0c20.99,0 36.52,15.97 40.98,35.93l11.85 52.86c3.72,-0.77 7.51,-1.18 11.29,-1.18l764 0c29.56,0 54.21,24.21 53.76,53.76l-4.72 309.91c-0.45,29.56 -24.37,50.6 -53.76,53.77l-661.45 71.02 8.57 38.25c2.18,9.9 0.6,19.76 -3.78,28.07l-10.19 19.47 589.08 0c22.83,0 41.33,18.52 41.33,41.34 0,22.83 -18.51,41.34 -41.33,41.33l-13.69 0c36.26,8.94 63.16,41.68 63.16,80.71 0,45.91 -37.22,83.12 -83.12,83.12 -45.91,0 -83.12,-37.22 -83.12,-83.12 0,-39.04 26.9,-71.78 63.18,-80.71l-543.17 -0.07c36.43,8.82 63.49,41.64 63.49,80.78 0,45.91 -37.22,83.12 -83.12,83.12 -45.91,0 -83.12,-37.22 -83.12,-83.12 0,-39.15 27.07,-71.98 63.51,-80.79l-21.47 0c-30.38,0.03 -51.15,-32.67 -36.49,-60.46l35.17 -66.68 -119.74 -534.65 -129.56 0 -0.05 0zm714.73 289.58c18.45,18.45 48.35,18.45 66.81,0 18.45,-18.45 18.45,-48.36 0,-66.81l-171.37 -170.83c-19.15,-14.7 -45.71,-12.8 -62.62,4.28l-166.57 166.56c-18.45,18.45 -18.45,48.36 0,66.81 18.45,18.45 48.35,18.45 66.8,0l86.23 -86.23 0 174.08c0,26.09 21.15,47.24 47.25,47.24 26.09,0 47.24,-21.15 47.24,-47.24l0 -174.08 86.23 86.23 0 -0.01z"/>
  <path class="fil2" d="M358.42 1206.54c0,0.6 -0.18,1.14 -0.56,1.62 -0.35,0.47 -1.01,0.85 -1.93,1.16 -0.92,0.29 -2.15,0.54 -3.73,0.7 -1.57,0.16 -3.53,0.22 -5.84,0.22 -2.33,0 -4.29,-0.06 -5.87,-0.22 -1.58,-0.16 -2.81,-0.41 -3.73,-0.7 -0.91,-0.31 -1.58,-0.69 -1.99,-1.16 -0.41,-0.48 -0.6,-1.02 -0.6,-1.62l0 -96.34 -44.71 0 0 96.34c0,0.6 -0.19,1.14 -0.6,1.62 -0.41,0.47 -1.07,0.85 -1.99,1.16 -0.92,0.29 -2.15,0.54 -3.7,0.7 -1.51,0.16 -3.5,0.22 -5.87,0.22 -2.34,0 -4.29,-0.06 -5.87,-0.22 -1.58,-0.16 -2.81,-0.41 -3.73,-0.7 -0.91,-0.31 -1.58,-0.69 -1.92,-1.16 -0.38,-0.48 -0.57,-1.02 -0.57,-1.62l0 -108.94c0,-2.59 0.66,-4.51 1.95,-5.78 1.3,-1.26 3,-1.89 5.15,-1.89l79.07 0c2.25,0 3.95,0.63 5.18,1.89 1.23,1.27 1.86,3.19 1.86,5.78l0 108.94zm108.16 -80.23c0,6.75 -1.04,12.69 -3.16,17.87 -2.08,5.21 -5.15,9.57 -9.19,13.1 -4.01,3.57 -8.93,6.26 -14.78,8.12 -5.84,1.86 -12.72,2.78 -20.65,2.78l-10.01 0 0 38.18c0,0.63 -0.19,1.16 -0.6,1.67 -0.41,0.47 -1.07,0.88 -1.99,1.2 -0.91,0.31 -2.14,0.54 -3.69,0.73 -1.52,0.18 -3.51,0.28 -5.88,0.28 -2.33,0 -4.29,-0.1 -5.87,-0.28 -1.58,-0.19 -2.81,-0.45 -3.73,-0.73 -0.91,-0.32 -1.57,-0.73 -1.92,-1.2 -0.38,-0.51 -0.57,-1.07 -0.57,-1.67l0 -107.72c0,-2.9 0.76,-5.08 2.27,-6.53 1.52,-1.46 3.51,-2.18 5.97,-2.18l28.23 0c2.84,0 5.56,0.09 8.12,0.31 2.56,0.22 5.62,0.7 9.22,1.39 3.57,0.73 7.2,2.02 10.86,3.95 3.66,1.89 6.82,4.33 9.41,7.26 2.59,2.94 4.58,6.35 5.94,10.3 1.36,3.91 2.02,8.3 2.02,13.17zm-25.39 1.76c0,-4.2 -0.76,-7.67 -2.24,-10.39 -1.49,-2.71 -3.32,-4.73 -5.5,-6.03 -2.18,-1.29 -4.45,-2.11 -6.82,-2.46 -2.4,-0.35 -4.86,-0.51 -7.42,-0.51l-10.42 0 0 40.74 10.99 0c3.92,0 7.17,-0.54 9.82,-1.58 2.62,-1.04 4.8,-2.53 6.47,-4.42 1.68,-1.86 2.94,-4.14 3.83,-6.76 0.85,-2.62 1.29,-5.49 1.29,-8.59zm151.79 20.34c0,9.91 -1.23,18.79 -3.69,26.62 -2.46,7.83 -6.13,14.49 -11.02,19.93 -4.86,5.46 -10.89,9.63 -18.06,12.5 -7.2,2.87 -15.51,4.3 -24.95,4.3 -9.32,0 -17.43,-1.24 -24.35,-3.67 -6.94,-2.43 -12.72,-6.12 -17.36,-11.15 -4.61,-4.98 -8.09,-11.33 -10.39,-19.04 -2.31,-7.7 -3.48,-16.83 -3.48,-27.38 0,-9.66 1.24,-18.37 3.7,-26.11 2.46,-7.74 6.12,-14.3 11.02,-19.74 4.86,-5.43 10.89,-9.6 18.06,-12.47 7.2,-2.9 15.54,-4.36 25.04,-4.36 9.07,0 17.05,1.2 24,3.6 6.92,2.4 12.73,6.1 17.37,11.12 4.67,4.99 8.18,11.27 10.55,18.88 2.36,7.64 3.56,16.61 3.56,26.97zm-25.57 1.23c0,-6.28 -0.51,-12 -1.49,-17.15 -0.98,-5.14 -2.65,-9.56 -5.02,-13.23 -2.37,-3.66 -5.52,-6.5 -9.47,-8.52 -3.95,-1.99 -8.87,-3 -14.78,-3 -5.97,0 -10.96,1.13 -14.94,3.38 -4.01,2.24 -7.26,5.27 -9.72,9.03 -2.47,3.76 -4.2,8.14 -5.21,13.17 -1.01,5.05 -1.52,10.35 -1.52,15.97 0,6.54 0.51,12.41 1.49,17.62 0.97,5.21 2.65,9.67 4.98,13.39 2.34,3.7 5.47,6.51 9.42,8.47 3.94,1.92 8.9,2.9 14.87,2.9 5.97,0 10.96,-1.1 14.93,-3.35 4.02,-2.21 7.27,-5.24 9.73,-9.06 2.46,-3.82 4.2,-8.27 5.21,-13.36 1.01,-5.08 1.52,-10.51 1.52,-16.26zm151.57 88.17c0,0.6 -0.16,1.13 -0.47,1.54 -0.29,0.45 -0.86,0.79 -1.64,1.08 -0.83,0.28 -1.9,0.5 -3.23,0.66 -1.35,0.16 -3.12,0.22 -5.27,0.22 -2.08,0 -3.79,-0.06 -5.11,-0.22 -1.33,-0.16 -2.4,-0.38 -3.23,-0.66 -0.85,-0.29 -1.42,-0.63 -1.76,-1.04 -0.35,-0.45 -0.51,-0.98 -0.51,-1.58l0 -28.14 -79.76 0 0 28.14c0,0.6 -0.16,1.13 -0.51,1.58 -0.35,0.41 -0.92,0.75 -1.77,1.04 -0.82,0.28 -1.92,0.5 -3.28,0.66 -1.36,0.16 -3.1,0.22 -5.18,0.22 -2.12,0 -3.85,-0.06 -5.21,-0.22 -1.36,-0.16 -2.47,-0.38 -3.29,-0.66 -0.82,-0.29 -1.42,-0.63 -1.7,-1.08 -0.32,-0.41 -0.48,-0.94 -0.48,-1.54l0 -43.04c-0.12,-1.77 0.19,-3.07 0.98,-3.82 0.76,-0.79 1.93,-1.17 3.48,-1.17l5.56 0c1.48,-2.09 2.87,-4.27 4.2,-6.48 1.32,-2.21 2.62,-4.86 3.85,-7.89 1.23,-3.06 2.43,-6.7 3.66,-10.93 1.2,-4.2 2.37,-9.38 3.54,-15.47 1.2,-6.09 2.37,-13.33 3.57,-21.69 1.2,-8.34 2.46,-18.16 3.75,-29.43 0.38,-2.78 1.08,-4.8 2.12,-6.07 1.07,-1.26 2.68,-1.89 4.83,-1.89l61.2 0c2.15,0 3.85,0.63 5.08,1.89 1.23,1.27 1.87,3.19 1.87,5.78l0 92.18 10.16 0c1.68,0 2.85,0.44 3.54,1.32 0.66,0.92 1.01,2.15 1.01,3.76l0 42.95zm-38.97 -128.18l-27.91 0c-1.11,9.35 -2.21,17.59 -3.32,24.7 -1.07,7.1 -2.18,13.35 -3.25,18.69 -1.1,5.37 -2.18,9.98 -3.31,13.86 -1.11,3.89 -2.25,7.23 -3.41,10.08 -1.14,2.81 -2.34,5.24 -3.57,7.29 -1.27,2.02 -2.53,3.85 -3.82,5.53l48.59 0 0 -80.15zm154.04 90.98c0.73,2.21 1.2,3.98 1.39,5.27 0.19,1.3 -0.06,2.28 -0.73,2.94 -0.69,0.63 -1.89,1.04 -3.63,1.2 -1.7,0.16 -4.1,0.22 -7.1,0.22 -3.16,0 -5.62,-0.03 -7.36,-0.13 -1.77,-0.09 -3.09,-0.28 -4.04,-0.57 -0.92,-0.28 -1.55,-0.66 -1.93,-1.16 -0.38,-0.48 -0.69,-1.14 -0.91,-1.93l-7.87 -24.06 -45.15 0 -7.55 23.4c-0.25,0.88 -0.57,1.61 -0.98,2.18 -0.38,0.6 -1.04,1.04 -1.93,1.39 -0.88,0.34 -2.14,0.56 -3.78,0.69 -1.65,0.13 -3.79,0.19 -6.45,0.19 -2.84,0 -5.05,-0.1 -6.66,-0.28 -1.61,-0.19 -2.72,-0.64 -3.32,-1.33 -0.63,-0.73 -0.85,-1.74 -0.66,-3.03 0.19,-1.3 0.66,-3 1.39,-5.18l36.88 -106.26c0.35,-1.04 0.79,-1.9 1.3,-2.53 0.47,-0.66 1.26,-1.13 2.33,-1.48 1.11,-0.35 2.59,-0.57 4.52,-0.66 1.89,-0.1 4.42,-0.13 7.58,-0.13 3.63,0 6.54,0.03 8.68,0.13 2.18,0.09 3.86,0.31 5.06,0.66 1.2,0.35 2.05,0.85 2.58,1.51 0.51,0.7 0.98,1.61 1.33,2.78l37.01 106.17zm-54.95 -87.91l-0.09 0 -16.67 50.93 33.6 0 -16.84 -50.93zm138.35 -12.79c0,1.8 -0.07,3.31 -0.22,4.61 -0.16,1.26 -0.38,2.27 -0.7,3.03 -0.31,0.79 -0.69,1.36 -1.17,1.7 -0.44,0.38 -0.98,0.57 -1.51,0.57l-29.94 0 0 96.54c0,0.6 -0.19,1.16 -0.6,1.67 -0.41,0.47 -1.07,0.88 -1.99,1.2 -0.91,0.28 -2.18,0.54 -3.76,0.73 -1.57,0.18 -3.53,0.28 -5.87,0.28 -2.34,0 -4.29,-0.1 -5.87,-0.28 -1.58,-0.19 -2.84,-0.45 -3.76,-0.73 -0.92,-0.32 -1.58,-0.73 -1.99,-1.2 -0.41,-0.51 -0.6,-1.07 -0.6,-1.67l0 -96.54 -29.94 0c-0.6,0 -1.13,-0.19 -1.57,-0.57 -0.41,-0.34 -0.79,-0.91 -1.11,-1.7 -0.28,-0.76 -0.54,-1.77 -0.69,-3.03 -0.16,-1.3 -0.23,-2.81 -0.23,-4.61 0,-1.84 0.07,-3.41 0.23,-4.71 0.15,-1.29 0.41,-2.34 0.69,-3.09 0.32,-0.79 0.7,-1.33 1.11,-1.68 0.44,-0.34 0.97,-0.5 1.57,-0.5l84.32 0c0.53,0 1.04,0.16 1.51,0.5 0.48,0.35 0.86,0.89 1.17,1.68 0.32,0.75 0.54,1.8 0.7,3.09 0.15,1.3 0.22,2.87 0.22,4.71zm102.34 70.07c0,5.68 -0.85,10.89 -2.56,15.63 -1.67,4.77 -4.42,8.9 -8.21,12.44 -3.82,3.57 -8.74,6.38 -14.87,8.46 -6.09,2.12 -14.46,3.16 -25.07,3.16l-29.91 0c-1.04,0 -2.02,-0.13 -2.9,-0.41 -0.89,-0.28 -1.68,-0.76 -2.37,-1.39 -0.66,-0.66 -1.2,-1.45 -1.61,-2.4 -0.41,-0.98 -0.6,-2.11 -0.6,-3.47l0 -108.95c0,-0.6 0.19,-1.13 0.6,-1.61 0.41,-0.47 1.07,-0.85 2.02,-1.17 0.95,-0.28 2.21,-0.53 3.79,-0.69 1.58,-0.16 3.47,-0.22 5.78,-0.22 2.37,0 4.36,0.06 5.87,0.22 1.55,0.16 2.78,0.41 3.7,0.69 0.91,0.32 1.58,0.7 1.92,1.17 0.38,0.48 0.57,1.01 0.57,1.61l0 40.83 16.77 0c9.09,0 16.32,0.79 21.69,2.37 5.37,1.58 9.92,3.89 13.68,6.98 3.72,3.1 6.63,6.88 8.65,11.37 2.05,4.51 3.06,9.63 3.06,15.38zm-25.01 2.02c0,-3 -0.44,-5.69 -1.29,-8.02 -0.89,-2.34 -2.21,-4.33 -3.98,-6 -1.8,-1.64 -4.11,-2.91 -6.92,-3.82 -2.81,-0.89 -7.01,-1.33 -12.57,-1.33l-14.08 0 0 37.89 14.56 0c5.81,0 10.14,-0.56 13.01,-1.7 2.87,-1.14 5.11,-2.62 6.72,-4.42 1.62,-1.83 2.78,-3.82 3.48,-6.03 0.72,-2.21 1.07,-4.42 1.07,-6.57z"/>
 </g>
</svg>
